PERFORMER "Mark Hancock"
TITLE "English Pronunciation In Use - CD2"
FILE "Mark.Hancock_2003_English.Pronunciation.In.Use_CD2.mp3" MP3
  TRACK 01 AUDIO
    TITLE "B1"
    INDEX 01 00:00:00
  TRACK 02 AUDIO
    TITLE "B2"
    INDEX 01 00:31:12
  TRACK 03 AUDIO
    TITLE "B3"
    INDEX 01 00:38:45
  TRACK 04 AUDIO
    TITLE "B4"
    INDEX 01 00:57:34
  TRACK 05 AUDIO
    TITLE "B5"
    INDEX 01 01:23:39
  TRACK 06 AUDIO
    TITLE "B6"
    INDEX 01 01:43:16
  TRACK 07 AUDIO
    TITLE "B7"
    INDEX 01 02:22:39
  TRACK 08 AUDIO
    TITLE "B8"
    INDEX 01 02:43:43
  TRACK 09 AUDIO
    TITLE "B9"
    INDEX 01 03:22:19
  TRACK 10 AUDIO
    TITLE "B10"
    INDEX 01 04:06:06
  TRACK 11 AUDIO
    TITLE "B11"
    INDEX 01 04:46:70
  TRACK 12 AUDIO
    TITLE "B12"
    INDEX 01 05:00:52
  TRACK 13 AUDIO
    TITLE "B13"
    INDEX 01 05:43:44
  TRACK 14 AUDIO
    TITLE "B14"
    INDEX 01 06:20:55
  TRACK 15 AUDIO
    TITLE "B15"
    INDEX 01 06:43:56
  TRACK 16 AUDIO
    TITLE "B16"
    INDEX 01 07:07:70
  TRACK 17 AUDIO
    TITLE "B17"
    INDEX 01 07:39:60
  TRACK 18 AUDIO
    TITLE "B18"
    INDEX 01 08:14:54
  TRACK 19 AUDIO
    TITLE "B19"
    INDEX 01 08:53:22
  TRACK 20 AUDIO
    TITLE "B20"
    INDEX 01 09:29:04
  TRACK 21 AUDIO
    TITLE "B21"
    INDEX 01 10:00:49
  TRACK 22 AUDIO
    TITLE "B22"
    INDEX 01 10:17:61
  TRACK 23 AUDIO
    TITLE "B23"
    INDEX 01 10:51:56
  TRACK 24 AUDIO
    TITLE "B24"
    INDEX 01 11:05:69
  TRACK 25 AUDIO
    TITLE "B25"
    INDEX 01 11:28:27
  TRACK 26 AUDIO
    TITLE "B26"
    INDEX 01 11:43:36
  TRACK 27 AUDIO
    TITLE "B27"
    INDEX 01 12:06:56
  TRACK 28 AUDIO
    TITLE "B28"
    INDEX 01 12:40:64
  TRACK 29 AUDIO
    TITLE "B29"
    INDEX 01 13:02:65
  TRACK 30 AUDIO
    TITLE "B30"
    INDEX 01 13:53:05
  TRACK 31 AUDIO
    TITLE "B31"
    INDEX 01 14:11:14
  TRACK 32 AUDIO
    TITLE "B32"
    INDEX 01 14:43:16
  TRACK 33 AUDIO
    TITLE "B33"
    INDEX 01 15:06:32
  TRACK 34 AUDIO
    TITLE "B34"
    INDEX 01 15:28:04
  TRACK 35 AUDIO
    TITLE "B35"
    INDEX 01 15:57:70
  TRACK 36 AUDIO
    TITLE "B36"
    INDEX 01 16:36:74
  TRACK 37 AUDIO
    TITLE "B37"
    INDEX 01 16:50:38
  TRACK 38 AUDIO
    TITLE "B38"
    INDEX 01 17:02:39
  TRACK 39 AUDIO
    TITLE "B39"
    INDEX 01 17:39:42
  TRACK 40 AUDIO
    TITLE "B40"
    INDEX 01 18:25:16
  TRACK 41 AUDIO
    TITLE "B41"
    INDEX 01 19:37:50
  TRACK 42 AUDIO
    TITLE "B42"
    INDEX 01 20:28:27
  TRACK 43 AUDIO
    TITLE "B43"
    INDEX 01 21:05:69
  TRACK 44 AUDIO
    TITLE "B44"
    INDEX 01 21:26:06
  TRACK 45 AUDIO
    TITLE "B45"
    INDEX 01 21:59:72
  TRACK 46 AUDIO
    TITLE "B46"
    INDEX 01 22:44:66
  TRACK 47 AUDIO
    TITLE "B47"
    INDEX 01 23:13:52
  TRACK 48 AUDIO
    TITLE "B48"
    INDEX 01 23:35:20
  TRACK 49 AUDIO
    TITLE "B49"
    INDEX 01 23:53:68
  TRACK 50 AUDIO
    TITLE "B50"
    INDEX 01 25:06:10
  TRACK 51 AUDIO
    TITLE "B51"
    INDEX 01 25:34:53
  TRACK 52 AUDIO
    TITLE "B52"
    INDEX 01 26:05:12
  TRACK 53 AUDIO
    TITLE "B53"
    INDEX 01 26:38:56
  TRACK 54 AUDIO
    TITLE "B54"
    INDEX 01 27:06:56
  TRACK 55 AUDIO
    TITLE "B55"
    INDEX 01 28:08:08
  TRACK 56 AUDIO
    TITLE "B56"
    INDEX 01 29:02:25
  TRACK 57 AUDIO
    TITLE "B57"
    INDEX 01 29:27:19
  TRACK 58 AUDIO
    TITLE "B58"
    INDEX 01 30:11:49
  TRACK 59 AUDIO
    TITLE "B59"
    INDEX 01 30:37:71
  TRACK 60 AUDIO
    TITLE "B60"
    INDEX 01 30:56:19
  TRACK 61 AUDIO
    TITLE "B61"
    INDEX 01 31:08:08
  TRACK 62 AUDIO
    TITLE "B62"
    INDEX 01 31:45:62
  TRACK 63 AUDIO
    TITLE "B63"
    INDEX 01 32:18:20
  TRACK 64 AUDIO
    TITLE "B64"
    INDEX 01 33:22:45
  TRACK 65 AUDIO
    TITLE "B65"
    INDEX 01 33:40:54
  TRACK 66 AUDIO
    TITLE "B66"
    INDEX 01 34:31:29
  TRACK 67 AUDIO
    TITLE "B67 a-b"
    INDEX 01 34:59:56
  TRACK 68 AUDIO
    TITLE "B68"
    INDEX 01 35:36:33
  TRACK 69 AUDIO
    TITLE "B69"
    INDEX 01 35:51:44
  TRACK 70 AUDIO
    TITLE "B70"
    INDEX 01 36:16:61
  TRACK 71 AUDIO
    TITLE "B71"
    INDEX 01 36:37:31
  TRACK 72 AUDIO
    TITLE "B72"
    INDEX 01 37:53:47
  TRACK 73 AUDIO
    TITLE "B73"
    INDEX 01 38:44:52
  TRACK 74 AUDIO
    TITLE "B74"
    INDEX 01 39:40:50
  TRACK 75 AUDIO
    TITLE "B75"
    INDEX 01 40:12:50
  TRACK 76 AUDIO
    TITLE "B76"
    INDEX 01 40:36:48
  TRACK 77 AUDIO
    TITLE "B77"
    INDEX 01 41:05:26
  TRACK 78 AUDIO
    TITLE "B78"
    INDEX 01 41:21:66
  TRACK 79 AUDIO
    TITLE "B79"
    INDEX 01 42:12:61
  TRACK 80 AUDIO
    TITLE "B80"
    INDEX 01 42:53:28
  TRACK 81 AUDIO
    TITLE "B81"
    INDEX 01 43:16:66
  TRACK 82 AUDIO
    TITLE "B82"
    INDEX 01 46:35:32
  TRACK 83 AUDIO
    TITLE "B83"
    INDEX 01 46:47:23
  TRACK 84 AUDIO
    TITLE "B84"
    INDEX 01 47:39:25
  TRACK 85 AUDIO
    TITLE "B85"
    INDEX 01 48:25:48
  TRACK 86 AUDIO
    TITLE "B86"
    INDEX 01 49:01:45
  TRACK 87 AUDIO
    TITLE "B87"
    INDEX 01 49:56:53
  TRACK 88 AUDIO
    TITLE "B88"
    INDEX 01 50:11:09
  TRACK 89 AUDIO
    TITLE "B89"
    INDEX 01 50:24:09
  TRACK 90 AUDIO
    TITLE "B90"
    INDEX 01 50:52:70
  TRACK 91 AUDIO
    TITLE "B91"
    INDEX 01 51:13:19
  TRACK 92 AUDIO
    TITLE "B92"
    INDEX 01 51:43:43
  TRACK 93 AUDIO
    TITLE "B93"
    INDEX 01 52:28:51
  TRACK 94 AUDIO
    TITLE "B94"
    INDEX 01 53:28:04
  TRACK 95 AUDIO
    TITLE "B95"
    INDEX 01 53:52:35
  TRACK 96 AUDIO
    TITLE "B96"
    INDEX 01 54:48:72
  TRACK 97 AUDIO
    TITLE "B97"
    INDEX 01 55:34:50
